<svg width="40" height="40" viewBox="0 0 40 40" fill="none" xmlns="http://www.w3.org/2000/svg">
<path fill-rule="evenodd" clip-rule="evenodd" d="M20 39.8C30.9352 39.8 39.7999 30.9352 39.7999 20C39.7999 9.06478 30.9352 0.200001 20 0.200001C9.06473 0.200001 0.199951 9.06478 0.199951 20C0.199951 30.9352 9.06473 39.8 20 39.8ZM20.0408 28.2159C11.6583 35.2209 4.86371 28.4263 11.8686 20.0437C4.86371 11.6612 11.6583 4.86659 20.0408 11.8716C28.4217 4.86659 35.218 11.6612 28.213 20.0437C35.218 28.4199 28.4217 35.2209 20.0408 28.2159ZM24.1414 20.0437C24.1414 22.3085 22.3056 24.1444 20.0408 24.1444C17.7761 24.1444 15.9402 22.3085 15.9402 20.0437C15.9402 17.779 17.7761 15.9431 20.0408 15.9431C22.3056 15.9431 24.1414 17.779 24.1414 20.0437Z" fill="#3B3B3B"/>
</svg>
