<svg width="26" height="26" viewBox="0 0 26 26" fill="none" xmlns="http://www.w3.org/2000/svg">
<path d="M12.9688 0.499916C6.06875 0.499916 0.46875 6.09995 0.46875 13C0.46875 19.9 6.06875 25.5001 12.9688 25.5001C19.8688 25.5001 25.4688 19.9 25.4688 13C25.4688 6.09995 19.8688 0.499916 12.9688 0.499916ZM18.7688 8.99997C18.5813 10.975 17.7688 15.775 17.3563 17.9875C17.1813 18.925 16.8313 19.2375 16.5063 19.275C15.7813 19.3375 15.2313 18.8 14.5313 18.3375C13.4313 17.6125 12.8063 17.1625 11.7438 16.4625C10.5063 15.65 11.3063 15.2 12.0188 14.475C12.2063 14.2875 15.4063 11.375 15.4688 11.1125C15.4774 11.0727 15.4763 11.0315 15.4654 10.9922C15.4545 10.953 15.4342 10.9171 15.4063 10.8875C15.3313 10.825 15.2313 10.85 15.1438 10.8625C15.0313 10.8875 13.2813 12.05 9.86875 14.35C9.36875 14.6875 8.91875 14.8625 8.51875 14.85C8.06875 14.8375 7.21875 14.6 6.58125 14.3875C5.79375 14.1375 5.18125 14 5.23125 13.5625C5.25625 13.3375 5.56875 13.1125 6.15625 12.875C9.80625 11.2875 12.2313 10.2375 13.4438 9.73748C16.9188 8.28747 17.6313 8.03747 18.1063 8.03747C18.2063 8.03747 18.4438 8.06247 18.5938 8.18747C18.7188 8.28747 18.7563 8.42497 18.7688 8.52497C18.7563 8.59997 18.7813 8.82497 18.7688 8.99997Z" fill="black"/>
</svg>
