<svg width="114" height="114" viewBox="0 0 114 114" fill="none" xmlns="http://www.w3.org/2000/svg">
<path d="M80.3846 71.6154C81.999 71.6154 83.3077 70.3067 83.3077 68.6923C83.3077 67.0779 81.999 65.7692 80.3846 65.7692C78.7703 65.7692 77.4615 67.0779 77.4615 68.6923C77.4615 70.3067 78.7703 71.6154 80.3846 71.6154Z" fill="#171A1F"/>
<path d="M20.4616 36.5385C16.4263 36.5385 13.1539 33.2661 13.1539 29.2308C13.1539 25.1955 16.4263 21.9231 20.4616 21.9231H26.3077" stroke="#171A1F" stroke-width="3.50769" stroke-miterlimit="10" stroke-linecap="square"/>
<path d="M95 59.9231L95 36.5385L20.4616 36.5385C16.4263 36.5385 13.1539 33.2661 13.1539 29.2308L13.1539 89.1539C13.1539 95.6109 18.3891 100.846 24.8462 100.846L95 100.846V77.4615" stroke="#171A1F" stroke-width="3.50769" stroke-miterlimit="10" stroke-linecap="square"/>
<path d="M100.846 77.4615H80.3846C75.541 77.4615 71.6154 73.5358 71.6154 68.6923C71.6154 63.8488 75.541 59.9231 80.3846 59.9231L100.846 59.9231V77.4615Z" stroke="#171A1F" stroke-width="3.50769" stroke-miterlimit="10" stroke-linecap="square"/>
<path d="M26.3077 29.2308L26.3077 13.1538L84.7692 13.1538V29.2308L26.3077 29.2308Z" stroke="#171A1F" stroke-width="3.50769" stroke-miterlimit="10" stroke-linecap="square"/>
</svg>
